<svg width="45" height="45" viewBox="0 0 45 45" fill="none" xmlns="http://www.w3.org/2000/svg">
<rect width="45" height="45" rx="10" fill="white"/>
<g clip-path="url(#clip0_5_3926)">
<path d="M16.6791 16.5585C16.6791 16.5585 17.0786 16.1483 17.8776 15.3279C18.6765 14.5076 20.2174 14.0974 22.5001 14.0974C24.7829 14.0974 26.7232 14.9177 28.3211 16.5585C29.9191 18.1992 30.718 20.1895 30.718 22.5293V29.0779C30.718 29.8484 30.4469 30.5118 29.9048 31.0682C29.3626 31.6246 28.7206 31.9028 27.9787 31.9028H25.2394V24.3698H28.8776V22.5293C28.8776 20.7031 28.2569 19.1551 27.0157 17.8853C25.7744 16.6155 24.2693 15.9807 22.5001 15.9807C20.731 15.9807 19.2258 16.6155 17.9846 17.8853C16.7433 19.1551 16.1227 20.7031 16.1227 22.5293V24.3698H19.7608V31.9028H17.0215C16.2796 31.9028 15.6376 31.6246 15.0955 31.0682C14.5533 30.5118 14.2822 29.8484 14.2822 29.0779V22.5293C14.2822 20.1895 15.0812 18.1992 16.6791 16.5585Z" fill="black"/>
</g>
<defs>
<clipPath id="clip0_5_3926">
<rect width="16.5" height="22" fill="white" transform="matrix(1 0 0 -1 14.25 34)"/>
</clipPath>
</defs>
</svg>
