<svg width="23" height="16" viewBox="0 0 23 16" fill="none" xmlns="http://www.w3.org/2000/svg">
<path d="M21.9434 2.50195C21.6973 1.51758 20.918 0.738281 19.9746 0.492188C18.2109 0 11.2383 0 11.2383 0C11.2383 0 4.22461 0 2.46094 0.492188C1.51758 0.738281 0.738281 1.51758 0.492188 2.50195C0 4.22461 0 7.91602 0 7.91602C0 7.91602 0 11.5664 0.492188 13.3301C0.738281 14.3145 1.51758 15.0527 2.46094 15.2988C4.22461 15.75 11.2383 15.75 11.2383 15.75C11.2383 15.75 18.2109 15.75 19.9746 15.2988C20.918 15.0527 21.6973 14.3145 21.9434 13.3301C22.4355 11.5664 22.4355 7.91602 22.4355 7.91602C22.4355 7.91602 22.4355 4.22461 21.9434 2.50195ZM8.94141 11.2383V4.59375L14.7656 7.91602L8.94141 11.2383Z" fill="#969696"/>
</svg>
