<svg width="22" height="22" viewBox="0 0 22 22" fill="none" xmlns="http://www.w3.org/2000/svg">
<rect width="22" height="22" rx="11" fill="#8E8B8C"/>
<g clip-path="url(#clip0_5_4141)">
<path d="M16.1874 6.69382C16.0193 7.21873 15.6625 7.66066 15.1972 7.9392C15.6528 7.88495 16.0864 7.76359 16.4906 7.58454C16.1887 8.0359 15.8066 8.43259 15.3653 8.74887C15.3702 8.84557 15.3721 8.94314 15.3721 9.04049C15.3721 12.0171 13.1065 15.4492 8.96341 15.4492C7.69123 15.4492 6.5076 15.0759 5.51074 14.4371C5.687 14.4577 5.86604 14.4687 6.04788 14.4687C7.10328 14.4687 8.07484 14.1084 8.84548 13.5046C7.8602 13.4862 7.02844 12.8349 6.74176 11.9402C6.87963 11.9663 7.02029 11.9807 7.16567 11.9807C7.37152 11.9807 7.57051 11.9532 7.7592 11.9018C6.72932 11.6946 5.95267 10.784 5.95267 9.69298V9.66489C6.25651 9.83364 6.60367 9.93528 6.97291 9.9475C6.36909 9.54417 5.97111 8.85458 5.97111 8.073C5.97111 7.66002 6.08154 7.27298 6.27581 6.94084C7.38675 8.30351 9.0464 9.20045 10.9183 9.29436C10.8799 9.12969 10.86 8.9575 10.86 8.78103C10.86 7.5378 11.8687 6.52914 13.1128 6.52914C13.7603 6.52914 14.3457 6.80232 14.7567 7.2406C15.2699 7.13918 15.7523 6.95177 16.1874 6.69382Z" fill="white"/>
</g>
<defs>
<clipPath id="clip0_5_4141">
<rect width="11" height="11" fill="white" transform="matrix(1 0 0 -1 5.5 16.5)"/>
</clipPath>
</defs>
</svg>
