<svg width="22" height="22" viewBox="0 0 22 22" fill="none" xmlns="http://www.w3.org/2000/svg">
<rect width="22" height="22" rx="11" fill="#8E8B8C"/>
<g clip-path="url(#clip0_5_4137)">
<path d="M5.53261 7.93076V15.4785H7.56922V7.93076H5.53261ZM11.7458 7.9314C12.4581 7.9314 14.5297 8.22023 14.5297 10.7933V15.4785H12.3723V10.7269C12.3723 10.1698 12.0567 9.7806 11.3733 9.7806C10.239 9.7806 10.3139 10.7269 10.3139 10.7269V15.4785H8.26632V7.93076H10.3139V8.52772C10.6282 8.28692 11 7.9314 11.7458 7.9314ZM5.51074 6.21536C5.51074 5.64713 5.97176 5.18612 6.53998 5.18612C7.10821 5.18612 7.56922 5.64713 7.56922 6.21536C7.56922 6.78358 7.10821 7.2446 6.53998 7.2446C5.97176 7.2446 5.51074 6.78358 5.51074 6.21536Z" fill="white"/>
</g>
<defs>
<clipPath id="clip0_5_4137">
<rect width="11" height="11" fill="white" transform="matrix(1 0 0 -1 5.5 15.5)"/>
</clipPath>
</defs>
</svg>
