<svg width="20" height="20" viewBox="0 0 20 20" fill="none" xmlns="http://www.w3.org/2000/svg">
<path d="M9.98051 -7.62939e-05C15.4924 -7.62939e-05 19.961 4.46737 19.961 9.98043C19.961 15.4923 15.4924 19.9609 9.98051 19.9609C4.46862 19.9609 0 15.4923 0 9.98043C0 4.46854 4.46862 -7.62939e-05 9.98051 -7.62939e-05ZM12.0526 12.2424L7.45653 10.0218C7.45809 9.99408 7.46043 9.96562 7.46043 9.93794L12.0515 7.72C12.361 7.95314 12.7439 8.09271 13.1606 8.09271C14.1786 8.09271 15.0043 7.26815 15.0043 6.24905C15.0043 5.22955 14.1786 4.40499 13.1606 4.40499C12.1439 4.40499 11.3177 5.23111 11.3177 6.24905V6.25022L6.76686 8.44827C6.45107 8.19759 6.05302 8.04671 5.6191 8.04671C4.60117 8.04671 3.77505 8.87244 3.77505 9.89076C3.77505 10.9087 4.60117 11.7344 5.6191 11.7344C5.98713 11.7344 6.32904 11.6249 6.61715 11.4389L11.3193 13.7118V13.713C11.3193 14.7325 12.1439 15.557 13.1618 15.557C14.1797 15.557 15.0058 14.7313 15.0058 13.713C15.0058 12.6939 14.1797 11.8693 13.1618 11.8693C12.745 11.8693 12.361 12.0089 12.0526 12.2424Z" fill="#8E8B8C"/>
</svg>
