<svg width="23" height="19" viewBox="0 0 23 19" fill="none" xmlns="http://www.w3.org/2000/svg">
<path d="M8.81323 2.91829C9.16342 3.07393 9.33852 3.3463 9.33852 3.73541V14.9416C9.33852 15.3307 9.16342 15.6031 8.81323 15.7588C8.65759 15.8366 8.5214 15.8755 8.40467 15.8755C8.24903 15.8755 8.05447 15.7977 7.82101 15.642L4.02724 12.607H0.933852C0.311284 12.607 0 12.2957 0 11.6732V7.00389C0 6.38132 0.311284 6.07004 0.933852 6.07004H4.02724L7.82101 2.97665C7.97665 2.85992 8.17121 2.80156 8.40467 2.80156C8.5214 2.80156 8.65759 2.84047 8.81323 2.91829ZM22.3541 9.33852C22.3541 12.8794 21.0895 15.9144 18.5603 18.4436C18.4047 18.5992 18.2296 18.677 18.035 18.677C17.8794 18.677 17.7237 18.5992 17.5681 18.4436C17.2179 18.1323 17.2179 17.8016 17.5681 17.4514C19.8249 15.2724 20.9533 12.5681 20.9533 9.33852C20.9533 6.10895 19.8249 3.40467 17.5681 1.22568C17.2179 0.875486 17.2179 0.544748 17.5681 0.233463C17.9183 -0.0778198 18.249 -0.0778198 18.5603 0.233463C21.0895 2.76265 22.3541 5.79767 22.3541 9.33852ZM15.9922 2.62646C17.7821 4.49416 18.677 6.73152 18.677 9.33852C18.677 11.9455 17.7821 14.1829 15.9922 16.0506C15.8366 16.2062 15.6615 16.284 15.4669 16.284C15.3113 16.284 15.1556 16.2062 15 16.0506C14.6498 15.7004 14.6304 15.3696 14.9416 15.0584C16.4981 13.5019 17.2763 11.5953 17.2763 9.33852C17.2763 7.08171 16.4981 5.1751 14.9416 3.61868C14.6304 3.30739 14.6498 2.97665 15 2.62646C15.3502 2.27626 15.6809 2.27626 15.9922 2.62646ZM13.0156 5.01945C14.1829 6.26459 14.7665 7.70428 14.7665 9.33852C14.7665 10.9728 14.1829 12.4125 13.0156 13.6576C12.8988 13.7743 12.7237 13.8327 12.4903 13.8327C12.2957 13.8327 12.1401 13.7743 12.0233 13.6576C11.7121 13.3463 11.7121 13.0156 12.0233 12.6654C12.9183 11.7704 13.3658 10.6615 13.3658 9.33852C13.3658 8.01556 12.9183 6.90661 12.0233 6.01167C11.7121 5.66148 11.7121 5.33074 12.0233 5.01945C12.3346 4.70817 12.6654 4.70817 13.0156 5.01945Z" fill="black"/>
</svg>
