<svg width="15" height="21" viewBox="0 0 15 21" fill="none" xmlns="http://www.w3.org/2000/svg">
<path d="M14.152 17.3715L9.69473 12.5085C10.699 11.4578 11.251 10.0838 11.251 8.625C11.251 7.12275 10.666 5.70975 9.60323 4.64775C8.54048 3.58575 7.12823 3 5.62598 3C4.12373 3 2.71073 3.585 1.64873 4.64775C0.586727 5.7105 0.000976562 7.12275 0.000976562 8.625C0.000976562 10.1273 0.585977 11.5403 1.64873 12.6023C2.71148 13.6643 4.12373 14.25 5.62598 14.25C6.92048 14.25 8.14748 13.8158 9.14198 13.0162L13.5992 17.8785C13.6735 17.9595 13.774 18 13.876 18C13.9667 18 14.0575 17.9677 14.1295 17.9017C14.2825 17.7615 14.2922 17.5245 14.1527 17.3722L14.152 17.3715ZM0.750227 8.625C0.750227 5.937 2.93723 3.75 5.62523 3.75C8.31323 3.75 10.5002 5.937 10.5002 8.625C10.5002 11.313 8.31323 13.5 5.62523 13.5C2.93723 13.5 0.750227 11.313 0.750227 8.625Z" fill="black"/>
</svg>
